<svg width="259" height="234" viewBox="0 0 259 234" fill="none" xmlns="http://www.w3.org/2000/svg">
<path d="M103.58 98.69C98.92 84.74 88.66 67.1 74.33 49.83C47.96 18.03 0 0 0 0C0 0 8.84 50.47 35.21 82.26C49.54 99.54 64.97 112.89 77.82 120.05L103.58 98.69Z" fill="#FFD900"/>
<path d="M52.86 29.6C27.92 10.5 0 0 0 0C0 0 5.15 29.38 19.3 57.43C23.75 52.31 29.04 47.13 34.99 42.2C40.94 37.26 47 33.03 52.86 29.6Z" fill="#232C3A"/>
<path d="M154.59 98.69C159.25 84.74 169.51 67.1 183.84 49.83C210.21 18.03 258.17 0 258.17 0C258.17 0 249.33 50.47 222.96 82.26C208.63 99.54 193.2 112.89 180.35 120.05L154.59 98.69Z" fill="#FFD900"/>
<path d="M205.3 29.6C230.25 10.5 258.17 0 258.17 0C258.17 0 253.02 29.38 238.87 57.43C234.42 52.31 229.13 47.13 223.18 42.2C217.22 37.26 211.16 33.03 205.3 29.6Z" fill="#232C3A"/>
<path d="M225.87 168.83C225.87 131.44 211.07 64.0898 129.09 64.0898C41.98 64.0898 32.31 131.43 32.31 168.83C32.31 206.23 75.64 233.16 129.09 233.16C182.54 233.16 225.87 206.22 225.87 168.83Z" fill="#FFD900"/>
<path d="M225.87 168.83C225.87 131.44 211.07 64.0898 129.09 64.0898C41.98 64.0898 32.31 131.43 32.31 168.83C32.31 206.23 75.64 233.16 129.09 233.16C182.54 233.16 225.87 206.22 225.87 168.83Z" fill="#FFD900"/>
<path opacity="0.75" d="M139.04 64.4502C184.75 83.2402 194.17 134.88 194.17 166.26C194.17 201.5 159.42 227.8 114.04 232.43C118.94 232.91 123.97 233.16 129.08 233.16C182.53 233.16 225.86 206.23 225.86 168.83C225.87 133 212.27 69.7002 139.04 64.4502Z" fill="#EDC607"/>
<path d="M67.2202 192.087C76.4786 190.4 82.3377 179.998 80.3067 168.854C78.2757 157.71 69.1237 150.044 59.8653 151.732C50.6068 153.419 44.7478 163.821 46.7788 174.965C48.8098 186.109 57.9617 193.775 67.2202 192.087Z" fill="#F2351A"/>
<path d="M211.446 174.972C213.477 163.829 207.618 153.427 198.36 151.739C189.101 150.052 179.949 157.718 177.918 168.862C175.887 180.006 181.746 190.407 191.005 192.095C200.263 193.782 209.415 186.116 211.446 174.972Z" fill="#F2351A"/>
<path d="M124.02 155.28C124.02 155.35 124.01 155.43 124.01 155.5C124.01 158.3 126.28 160.57 129.08 160.57C131.88 160.57 134.15 158.3 134.15 155.5C134.15 155.43 134.15 155.35 134.14 155.28H124.02Z" fill="#232C3A"/>
<path d="M100.01 137.5L81.44 118.93C80.21 117.7 80.21 115.72 81.44 114.49C82.67 113.26 84.65 113.26 85.88 114.49L104.45 133.06C105.68 134.29 105.68 136.27 104.45 137.5C103.22 138.73 101.24 138.73 100.01 137.5Z" fill="#232C3A"/>
<path d="M104.45 118.93L85.88 137.5C84.65 138.73 82.67 138.73 81.44 137.5C80.21 136.27 80.21 134.29 81.44 133.06L100.01 114.49C101.24 113.26 103.22 113.26 104.45 114.49C105.67 115.72 105.67 117.71 104.45 118.93Z" fill="#232C3A"/>
<path d="M173.15 137.5L154.58 118.93C153.35 117.7 153.35 115.72 154.58 114.49C155.81 113.26 157.79 113.26 159.02 114.49L177.59 133.06C178.82 134.29 178.82 136.27 177.59 137.5C176.36 138.73 174.38 138.73 173.15 137.5Z" fill="#232C3A"/>
<path d="M177.59 118.93L159.02 137.5C157.79 138.73 155.81 138.73 154.58 137.5C153.35 136.27 153.35 134.29 154.58 133.06L173.15 114.49C174.38 113.26 176.36 113.26 177.59 114.49C178.81 115.72 178.81 117.71 177.59 118.93Z" fill="#232C3A"/>
<path d="M154.88 183.481C137.96 189.881 119.28 189.881 102.37 183.481C100.6 182.811 98.59 183.551 97.84 185.231C97.1 186.911 98.05 188.961 100.01 189.701C118.44 196.681 138.8 196.681 157.23 189.701C159.19 188.961 160.15 186.911 159.4 185.231C158.66 183.561 156.65 182.821 154.88 183.481Z" fill="#232C3A"/>
</svg>
