<svg width="38" height="52" viewBox="0 0 38 52" fill="none" xmlns="http://www.w3.org/2000/svg">
<path d="M31.5459 31.3821L31.4802 31.6991C31.3823 32.016 31.2521 32.333 31.1542 32.6499C31.1542 32.7298 31.0886 32.8883 31.0563 32.9669C30.0147 35.7802 28.0616 37.1266 25.0347 37.8011C24.8722 37.8404 24.5784 37.9203 24.2857 37.9596C21.3557 38.3957 19.1422 38.4743 16.2132 38.1573C16.1152 38.1573 15.985 38.118 15.9205 38.118C11.8519 37.5627 9.44261 35.7802 8.17287 32.9276C8.14058 32.8883 8.07496 32.7691 8.04266 32.6106C7.91246 32.333 7.81455 31.9767 7.71664 31.6991C7.65101 31.5406 7.61872 31.4607 7.58643 31.3428C7.16353 29.8772 7 28.1733 7 26.2715C7 22.9435 7.84684 21.6364 8.98533 19.8526C8.1062 16.0491 9.34365 13.4336 9.34365 13.4336C9.34365 13.4336 11.1988 12.9582 14.7143 16.0086C16.6027 15.0184 21.6473 14.9385 24.0566 15.8108C25.5211 14.6216 28.2231 12.9582 29.3303 13.4336C29.5907 13.9889 30.2094 15.6523 29.6886 19.3366C30.047 20.129 32 21.8722 32 26.7457C31.9677 28.5283 31.8042 30.0737 31.5438 31.3809L31.5459 31.3821ZM10.2249 30.2335C10.2249 34.6315 12.7643 36.5726 16.3121 36.9288C16.5402 36.9681 16.7683 36.9681 17.0287 37.0087C18.6891 37.048 20.7723 37.0886 22.8233 37.0087C23.2795 36.9694 23.7347 36.9288 24.1576 36.8502C27.5429 36.2556 28.9428 33.8785 28.9428 30.5504C28.9428 28.134 28.0314 24.9644 24.3857 24.9644C24.1253 24.9644 21.9765 25.2814 19.9265 25.2814C17.6152 25.2814 15.2392 24.9644 14.8809 24.9644C11.1373 24.9644 10.2249 28.5701 10.2249 30.2335ZM14.5216 28.2126C15.2382 28.2126 15.7913 29.2433 15.7913 30.5111C15.7913 31.7789 15.2382 32.8097 14.5216 32.8097C13.8049 32.8097 13.2841 31.7789 13.2841 30.5111C13.2841 29.2433 13.8049 28.2126 14.5216 28.2126ZM25.0357 32.8084C24.2868 32.8084 23.7337 31.7777 23.7337 30.5099C23.7337 29.242 24.2868 28.2113 25.0357 28.2113C25.7523 28.2113 26.3054 29.242 26.3054 30.5099C26.3054 31.7777 25.7523 32.8084 25.0357 32.8084ZM19.6318 33.9178C19.3057 33.9178 19.0453 33.5615 19.0453 33.1647C19.0453 32.8084 19.3057 32.4915 19.6318 32.4915C19.9578 32.4915 20.2505 32.8084 20.2505 33.1647C20.2505 33.5615 19.9578 33.9178 19.6318 33.9178ZM19.6641 36.2949C18.7203 36.2949 17.9714 35.3048 17.9714 34.7101C17.9714 34.4718 18.1016 34.274 18.2974 34.274C18.4933 34.274 18.6235 34.4718 18.6235 34.7101C18.6558 34.8293 19.0797 35.5025 19.6651 35.5025C20.1213 35.5025 20.5442 35.0271 20.5442 34.7101C20.5442 34.4718 20.7067 34.274 20.8703 34.274C21.0661 34.274 21.2286 34.4718 21.2286 34.7101C21.2286 35.4239 20.5776 36.2949 19.6661 36.2949H19.6641Z" fill="#001D3D"/>
</svg>
