<svg width="20" height="26" viewBox="0 0 20 26" fill="none" xmlns="http://www.w3.org/2000/svg">
<g clip-path="url(#clip0_19_144)">
<path d="M0.349365 22H4.49784V8.6521H0.349365V22Z" fill="#001D3D"/>
<path d="M0 4.407C0 5.71991 1.0917 6.814 2.40175 6.814C3.75546 6.814 4.80349 5.76368 4.80349 4.407C4.80349 3.09409 3.71179 2 2.40175 2C1.0917 2 0 3.09409 0 4.407Z" fill="#001D3D"/>
<path d="M15.8515 22H20V14.6915C20 11.1028 19.214 8.3457 15.0218 8.3457C13.0131 8.3457 11.6594 9.4398 11.0917 10.4902H11.048V8.65205H7.07422V22H11.2227V15.3917C11.2227 13.6849 11.5721 11.9781 13.7118 11.9781C15.8079 11.9781 15.8515 13.9912 15.8515 15.523V22Z" fill="#001D3D"/>
</g>
<defs>
<clipPath id="clip0_19_144">
<rect width="20" height="26" fill="white"/>
</clipPath>
</defs>
</svg>
