<svg width="34" height="24" viewBox="0 0 34 24" fill="none" xmlns="http://www.w3.org/2000/svg">
<path d="M33.672 5.7393C33.672 5.7393 33.3533 3.4843 32.3443 2.45931C31.0697 1.17806 29.5825 1.12682 28.9453 1.07556C24.1122 0.768066 16.9954 0.768066 16.9954 0.768066C16.9954 0.768066 9.87856 0.768066 5.09861 1.07556C4.40817 1.12682 2.97419 1.17806 1.69954 2.45931C0.690436 3.43306 0.371774 5.7393 0.371774 5.7393C0.371774 5.7393 0 8.40428 0 11.0693V13.5805C0 16.2455 0.318663 18.9105 0.318663 18.9105C0.318663 18.9105 0.637326 21.1655 1.64643 22.1905C2.92108 23.4717 4.62062 23.4717 5.41728 23.5742C8.1259 23.8305 16.9954 23.8818 16.9954 23.8818C16.9954 23.8818 24.1122 23.8817 28.8921 23.5229C29.5825 23.4717 31.0165 23.4206 32.2912 22.1392C33.3003 21.1655 33.619 18.8593 33.619 18.8593C33.619 18.8593 33.9907 16.1943 33.9907 13.5293V11.018C33.9907 8.40428 33.672 5.7393 33.672 5.7393ZM13.4901 16.5531V7.32804L22.6782 11.9405L13.4901 16.5531Z" fill="#EDF2FB"/>
</svg>
